<?xml version="1.0" standalone="no"?>
<!DOCTYPE svg PUBLIC "-//W3C//DTD SVG 20010904//EN"
 "http://www.w3.org/TR/2001/REC-SVG-20010904/DTD/svg10.dtd">
<svg version="1.0" xmlns="http://www.w3.org/2000/svg"
 width="260.000000pt" height="260.000000pt" viewBox="0 0 260.000000 260.000000"
 preserveAspectRatio="xMidYMid meet">
<metadata>
Created by potrace 1.14, written by Peter Selinger 2001-2017
</metadata>
<g transform="translate(0.000000,260.000000) scale(0.100000,-0.100000)"
fill="#000000" stroke="none">
<path d="M0 1300 l0 -1300 1300 0 1300 0 0 1300 0 1300 -1300 0 -1300 0 0
-1300z m1033 387 l37 -16 -25 -67 c-14 -38 -27 -70 -29 -72 -2 -2 -28 4 -57
12 -102 31 -185 14 -208 -43 -17 -39 0 -69 62 -108 23 -14 66 -41 94 -60 135
-86 152 -243 39 -359 -42 -43 -63 -56 -120 -73 -105 -32 -233 -26 -329 16 -42
18 -42 17 -1 109 l23 53 48 -22 c37 -16 67 -22 130 -22 72 0 84 3 107 24 14
13 28 33 32 43 9 29 -12 70 -49 94 -17 12 -63 42 -102 67 -97 63 -120 101
-120 191 1 79 14 113 67 165 38 38 91 67 145 81 55 14 211 6 256 -13z m580
-199 c10 -117 17 -238 17 -269 0 -31 3 -59 7 -63 4 -3 22 31 40 76 18 46 75
170 126 275 l92 193 118 0 c64 0 117 -3 117 -7 1 -5 -23 -187 -52 -405 l-53
-398 -86 0 -86 0 29 193 c16 105 37 243 48 306 11 63 18 116 17 118 -2 1 -19
-32 -37 -75 -18 -42 -84 -179 -147 -304 l-113 -228 -68 0 -69 0 -17 213 c-10
116 -21 257 -24 312 l-7 100 -23 -110 c-23 -109 -94 -415 -113 -487 l-10 -38
-79 0 c-44 0 -80 3 -80 7 0 3 45 184 100 400 55 217 100 396 100 399 0 2 53 4
118 4 l119 0 16 -212z"/>
</g>
</svg>
